# xmcd CD database file
#
# Track frame offsets:
#	150
#	48062
#	96437
#	109187
#	118712
#	163262
#	208712
#	235862
#
# Disc length: 3718 seconds
#
# Revision: 0
# Processed by: cddbd v1.5.1PL2 Copyright (c) Steve Scherf et al.
# Submitted via: CDex 1.51
#
DISCID=6a0e8408
DTITLE=Joe Maneri Quartet - Tenderly
DYEAR=1999
DGENRE=Jazz
TTITLE0=Ascend
TTITLE1=Swing
TTITLE2=Vignette #1
TTITLE3=Vignette #2
TTITLE4=What's New 
TTITLE5=Five Short Pieces
TTITLE6=Alto
TTITLE7=Tenderly
EXTD=YEAR: 1999
EXTT0=
EXTT1=
EXTT2=
EXTT3=
EXTT4=
EXTT5=
EXTT6=
EXTT7=
PLAYORDER=
